<?xml version="1.0" encoding="UTF-8"?>
<svg width="752pt" height="752pt" version="1.1" viewBox="0 0 752 752" xmlns="http://www.w3.org/2000/svg">
 <path d="m366.73 548.08v-8.0898c-1.3828-1.7773-2.168 0-2.168 0s0 19.93-0.39453 24.469c-0.39453 4.543-1.3828 7.4883-12.039 7.4961-9.0977 0.007813-10.457-7.6953-10.457-7.6953l-0.78906-23.086c-0.78906-4.3438-1.7773-1.3867-1.7773-1.3867s-0.19922 18.551-0.19922 24.27c0 5.7227-0.39453 4.3398-0.39453 4.3398l-56.043 29.215c-1.9766 1.4766-4.4414-0.39844-4.4414-0.39844l-6.8086-10.957c-3.2578-7.3984 2.0742-15.098 2.0742-15.098s40.848-54.168 46.469-60.383c5.6211-6.2148 5.918-18.352 6.2148-20.719 0.29297-2.3672-3.2578-0.59375-3.2578-0.59375s-89.688 17.758-99.16 18.941c-9.4727 1.1875-8.5742-1.7734-8.5742-1.7734v-23.387c0-12.73 7.9922-18.352 7.9922-18.352l102.41-102.71s-0.29297-3.2578 0-14.5c0.29297-11.242 21.312-85.836 25.754-98.859 4.4414-13.023 5.0312-45.879 6.5117-53.871 1.4805-7.9883 10.062-34.926 10.949-38.18 0.88672-3.25 2.6641-3.25 2.6641-3.25h0.39453s1.7773 0 2.6602 3.2578c0.88672 3.2578 9.4727 30.191 10.949 38.18 1.4766 7.9883 2.0742 40.848 6.5117 53.871s25.453 87.613 25.754 98.859c0.29688 11.246 0 14.5 0 14.5l102.41 102.71s7.9922 5.625 7.9922 18.352v23.387s0.89062 2.9609-8.582 1.7773c-9.4727-1.1836-99.16-18.941-99.16-18.941s-3.5508-1.7773-3.2578 0.59375c0.29297 2.3672 0.59375 14.5 6.2148 20.719s46.469 60.383 46.469 60.383 5.3281 7.6953 2.0742 15.098l-6.8086 10.957s-2.4688 1.875-4.4414 0.39844l-56.027-29.227s-0.39844 1.3828-0.39844-4.3398c0-5.7227-0.19531-24.27-0.19531-24.27s-0.98438-2.957-1.7773 1.3867l-0.78906 23.086s-1.3789 8.2891-10.457 7.6953-11.645-2.957-12.039-7.4961c-0.39062-4.5391-0.39062-24.469-0.39062-24.469s-0.78906-1.7773-2.1719 0v8.0898m5.9453-255.62v-56.363c0-5.9023-4.7812-10.684-10.68-10.684-5.9062 0-10.684 4.7812-10.684 10.684v56.363z"/>
</svg>
