<?xml version="1.0" encoding="UTF-8"?>
<svg width="752pt" height="752pt" version="1.1" viewBox="0 0 752 752" xmlns="http://www.w3.org/2000/svg">
 <g>
  <path d="m427.82 368.63v3.6289l-11.559-2.0703 6.5508 11.738 6.9102 5.6953-2.7578 1.3789-0.69531 5.5234v3.9688l0.51562 3.7969 2.4219 4.6641 4.4844 1.3789-0.86719 3.1133 31.078 45.562-12.082 13.117-0.69141 8.2891-3.1055 0.51172-0.003906 3.6328 14.672 3.9648v12.25l19.164 7.25s27.445-1.7227 37.281-1.7227c9.8477 0 9.6719-18.648 2.0703-18.648 0-3.1016-0.51563-9.4844-0.51563-9.4844h24.855l-0.68359-5.1758 2.0664-4.668-1.3828-14.332-6.2148-7.2422 2.5859-7.9414-0.67578-4.6641 0.16406-5.1758 3.0977-2.7617-0.33984-6.9062 18.305 2.0742 15.012-14.844-23.305-17.266-31.934 16.227-9.3164-7.0703 3.1016-6.043 3.4492-0.51562 2.0781-3.2773-7.2461-5.0117-10.711-0.17188-54.543-34.172-12.258-1.2031 3.6289 6.043-3.2773 1.3828-58.691-40.047-47.984-23.832-1.043 1.3867 38.492 35.723zm82.938 25.031-1.5586 2.4062-68.871-44.359 1.5586-2.4062zm12.41 12.938 1.582-2.4023 18.648 12.258-1.582 2.4023zm-3.2695 43.312c-0.88672-0.28906-1.2031-0.39453-9.0312-23.863l1.8867-0.625-2.0352-1.4141 1.6367-2.3477 19.156 13.289-1.6328 2.3555-15.918-11.039c2.6094 7.8008 6.5508 19.297 7.4336 21.258 1.375 0.86328 6.1562 4.0312 24.086 16.238l-1.6133 2.3789c-9.1953-6.2773-23.223-15.781-23.969-16.23zm-54.457 34.148 51.602-0.69141 0.027344 2.8633-51.602 0.6875zm28.914-30.836-11.625-10.621-1.8594 0.67578-6.7109-5.6367 2.5938-8.543 27.52 20.367-1.7031 2.3086-24.254-17.945-0.86719 2.8398 3.9922 3.3438 1.9336-0.69531 16.344 14.922-6.8906 2.6484 6.5352 0.42188 20.336-1.3086v1.4648l2.8398-3.2852 2.1719 1.8711-7.8789 9.1406v-6.125l-17.465 1.0977-4.0273-0.25391-0.29688 16.492 6.3047 2.4688 7.6523-5.2656 1.6211 2.3633-8.9062 6.125-9.5703-3.7422 0.39453-21.348-38.645 14.809-1.0312-2.6758zm1.1328-18.828-5.0039-3.2773 6.0352-8.4492 5.3555 3.6133zm-55.246-25.547s34.355 23.469 34.863 23.82l-3.9727 6.3867 7.7695 8.8008-0.17188 8.1172-7.0781 1.5586-19.668-26.066-0.51562-3.457zm-7.3789-15.734 1.6484-2.3477 55.062 38.484-1.6484 2.3594zm-9.0156-31.746 19.422 6.2461 83.758 57.488-1.625 2.3633-83.203-57.188-10.406-3.3438 6.5156 8.3984 72.293 48.199-1.5859 2.3906-72.504-48.328z"/>
  <path d="m272.91 368.63v3.6289l-11.559-2.0703 6.5547 11.738 6.9102 5.6953-2.75 1.3789-0.70703 5.5234v3.9688l0.52734 3.7969 2.4219 4.6641 4.4766 1.3789-0.85547 3.1133 31.078 45.562-12.082 13.117-0.69922 8.2891-3.0977 0.51172-0.011718 3.6328 14.672 3.9648v12.25l19.156 7.25s27.445-1.7227 37.285-1.7227 9.6719-18.648 2.0742-18.648c0-3.1016-0.51562-9.4844-0.51562-9.4844h24.852l-0.6875-5.1758 2.0703-4.668-1.3828-14.332-6.2188-7.2422 2.5898-7.9414-0.6875-4.6641 0.16406-5.1758 3.1055-2.7617-0.33984-6.9062 18.293 2.0742 15.012-14.844-23.297-17.266-31.938 16.227-9.3203-7.0703 3.1133-6.043 3.4492-0.51562 2.0742-3.2773-7.25-5.0117-10.703-0.17188-54.547-34.172-12.25-1.2031 3.6289 6.043-3.2812 1.3828-58.691-40.047-47.977-23.832-1.043 1.3867 38.492 35.723zm82.941 25.031-1.5586 2.4062-68.867-44.359 1.5586-2.4062zm12.414 12.938 1.582-2.4023 18.645 12.258-1.582 2.4023zm-3.2734 43.312c-0.88281-0.28906-1.207-0.39453-9.0312-23.863l1.8867-0.625-2.0352-1.4141 1.6445-2.3477 19.152 13.289-1.6328 2.3555-15.914-11.039c2.6094 7.8008 6.543 19.297 7.4336 21.258 1.375 0.86328 6.1562 4.0312 24.086 16.238l-1.6133 2.3789c-9.2031-6.2773-23.238-15.781-23.977-16.23zm-54.461 34.148 51.602-0.69141 0.03125 2.8633-51.602 0.6875zm28.91-30.836-11.625-10.621-1.8555 0.67578-6.7148-5.6367 2.6055-8.543 27.52 20.367-1.707 2.3086-24.258-17.945-0.86328 2.8398 3.9883 3.3438 1.9414-0.69531 16.34 14.922-6.8945 2.6484 6.5352 0.42188 20.344-1.3086v1.4648l2.832-3.2852 2.1797 1.8711-7.875 9.1406v-6.125l-17.477 1.0977-4.0195-0.25391-0.30859 16.492 6.3047 2.4688 7.6523-5.2656 1.6289 2.3633-8.9062 6.125-9.5742-3.7422 0.39453-21.348-38.645 14.809-1.0273-2.6758zm1.1367-18.828-5-3.2773 6.0391-8.4492 5.3477 3.6133zm-55.238-25.547s34.348 23.469 34.863 23.82l-3.9727 6.3867 7.7695 8.8008-0.17188 8.1172-7.0781 1.5586-19.672-26.066-0.51172-3.457zm-7.3828-15.734 1.6484-2.3477 55.062 38.484-1.6484 2.3594zm-9.0156-31.746 19.43 6.2461 83.754 57.488-1.625 2.3633-83.207-57.188-10.398-3.3438 6.5078 8.3984 72.301 48.199-1.5898 2.3906-72.504-48.328z"/>
 </g>
</svg>
